<?xml version="1.0" encoding="UTF-8"?>
<!DOCTYPE svg PUBLIC "-//W3C//DTD SVG 1.1//EN" "http://www.w3.org/Graphics/SVG/1.1/DTD/svg11.dtd">
<svg xmlns="http://www.w3.org/2000/svg" version="1.1" width="1280px" height="960px" style="shape-rendering:geometricPrecision; text-rendering:geometricPrecision; image-rendering:optimizeQuality; fill-rule:evenodd; clip-rule:evenodd" xmlns:xlink="http://www.w3.org/1999/xlink">
<g><path style="opacity:0.525" fill="#fefefe" d="M 665.5,261.5 C 723.574,261.603 765.074,287.603 790,339.5C 797.951,360.625 799.951,382.291 796,404.5C 786.71,430.1 768.377,444.1 741,446.5C 706.663,444.161 685.996,426.161 679,392.5C 679.453,362.021 667.286,338.521 642.5,322C 606.415,304.757 574.582,310.257 547,338.5C 533.886,355.617 528.219,374.951 530,396.5C 533.776,411.558 541.276,424.391 552.5,435C 576.113,449.994 599.78,464.994 623.5,480C 649.67,494.248 675.336,509.248 700.5,525C 708.316,530.818 715.483,537.318 722,544.5C 737.806,572.781 733.973,597.948 710.5,620C 699.694,626.451 688.028,630.285 675.5,631.5C 671.874,631.184 668.707,629.85 666,627.5C 665.333,626.833 665.333,626.167 666,625.5C 681.566,614.304 686.566,599.304 681,580.5C 678.747,576.322 676.247,572.322 673.5,568.5C 664.715,562.46 656.048,556.46 647.5,550.5C 609.541,528.703 572.208,506.203 535.5,483C 525.001,475.16 515.167,466.66 506,457.5C 502.123,451.272 497.79,445.272 493,439.5C 468.896,382.893 479.062,333.726 523.5,292C 537.381,281.058 552.714,272.725 569.5,267C 628.226,254.124 675.059,271.957 710,320.5C 722.264,342.223 728.597,365.557 729,390.5C 734.036,397.351 739.703,398.017 746,392.5C 750.841,334.218 727.008,292.718 674.5,268C 671.568,266.855 668.568,266.022 665.5,265.5C 665.5,264.167 665.5,262.833 665.5,261.5 Z"/></g>
<g><path style="opacity:1" fill="#f9f8f9" d="M 594.5,265.5 C 644.179,264.185 682.512,284.852 709.5,327.5C 710.463,330.283 711.63,332.95 713,335.5C 713.333,335.167 713.667,334.833 714,334.5C 716.816,342.98 719.65,351.147 722.5,359C 722.355,359.772 722.022,360.439 721.5,361C 723.077,363.564 724.077,366.397 724.5,369.5C 724.291,370.086 723.957,370.586 723.5,371C 724.147,376.78 724.814,382.613 725.5,388.5C 727.646,398.411 733.646,401.911 743.5,399C 745.874,398.152 747.874,396.819 749.5,395C 750.468,382.888 750.801,370.888 750.5,359C 747.771,351.349 745.438,343.183 743.5,334.5C 739.033,324.063 733.867,314.063 728,304.5C 727.097,303.299 725.931,302.465 724.5,302C 725.833,300.16 725.666,299.66 724,300.5C 720,296.5 716,292.5 712,288.5C 711.517,287.552 711.351,286.552 711.5,285.5C 710.127,285.657 708.793,285.49 707.5,285C 698.867,276.738 688.867,270.405 677.5,266C 682.868,265.522 688.201,265.855 693.5,267C 696.007,267.093 698.174,267.926 700,269.5C 701.398,268.949 702.732,268.616 704,268.5C 709.51,271.171 715.343,273.171 721.5,274.5C 721.119,276.942 721.786,277.609 723.5,276.5C 752.484,289.818 773.484,311.151 786.5,340.5C 786.291,341.086 785.957,341.586 785.5,342C 786.961,343.351 788.294,344.851 789.5,346.5C 788.145,347.675 788.312,348.675 790,349.5C 791.416,354.415 792.416,359.415 793,364.5C 793.333,364.167 793.667,363.833 794,363.5C 798.896,384.493 795.396,403.826 783.5,421.5C 776.796,428.718 769.129,434.551 760.5,439C 751.062,442.183 741.396,443.183 731.5,442C 730.874,441.25 730.374,440.416 730,439.5C 729.326,440.578 728.326,441.245 727,441.5C 708.464,436.887 695.131,425.887 687,408.5C 686.667,406.833 686.333,405.167 686,403.5C 685.667,403.833 685.333,404.167 685,404.5C 683.287,393.99 681.954,383.323 681,372.5C 678.427,363.198 675.093,354.198 671,345.5C 667.342,340.181 663.342,335.181 659,330.5C 658.517,329.552 658.351,328.552 658.5,327.5C 653.899,326.086 649.899,323.586 646.5,320C 642.637,318.813 638.97,317.147 635.5,315C 608.803,304.507 583.469,307.007 559.5,322.5C 555.629,325.505 552.129,328.838 549,332.5C 548.667,331.833 548.333,331.167 548,330.5C 545.588,336.171 542.088,341.004 537.5,345C 537.833,345.333 538.167,345.667 538.5,346C 537.687,347.314 536.687,348.481 535.5,349.5C 521.989,376.67 523.823,403.004 541,428.5C 542.255,429.211 543.421,430.044 544.5,431C 544.167,431.333 543.833,431.667 543.5,432C 545.833,433.667 548.167,435.333 550.5,437C 550.167,437.333 549.833,437.667 549.5,438C 553.275,439.606 556.942,441.44 560.5,443.5C 560.291,444.086 559.957,444.586 559.5,445C 565.48,447.843 571.48,450.843 577.5,454C 578.5,455.667 579.833,457 581.5,458C 594.579,465.812 607.579,473.812 620.5,482C 645.825,495.797 670.991,510.964 696,527.5C 705,532.865 713.167,539.865 720.5,548.5C 733.969,574.703 730.136,597.369 709,616.5C 708.667,616.167 708.333,615.833 708,615.5C 707.044,616.579 706.211,617.745 705.5,619C 695,625.4 683.667,627.9 671.5,626.5C 676.086,622.167 680.086,617.334 683.5,612C 682.892,609.816 683.559,607.816 685.5,606C 684.941,605.275 684.608,604.442 684.5,603.5C 685.896,600.079 686.896,596.579 687.5,593C 686.167,591.667 686.167,590.333 687.5,589C 686.552,588.517 685.552,588.351 684.5,588.5C 684.543,585.09 684.043,581.757 683,578.5C 681.394,574.096 679.227,570.096 676.5,566.5C 672.468,562.56 668.134,559.06 663.5,556C 657.235,552.535 650.901,549.369 644.5,546.5C 644.649,545.448 644.483,544.448 644,543.5C 643.667,543.833 643.333,544.167 643,544.5C 641.068,542.962 638.901,541.795 636.5,541C 635.789,539.745 634.956,538.579 634,537.5C 633.667,537.833 633.333,538.167 633,538.5C 631.2,536.683 629.034,535.516 626.5,535C 625.365,531.793 623.365,530.459 620.5,531C 589.651,512.078 558.984,492.911 528.5,473.5C 522.049,468.183 515.882,462.516 510,456.5C 505.23,449.89 500.397,443.39 495.5,437C 489.739,423.905 485.739,410.572 483.5,397C 483.42,388.329 483.586,379.495 484,370.5C 485.732,361.986 487.899,353.653 490.5,345.5C 491.354,344.478 492.354,343.645 493.5,343C 493.043,342.586 492.709,342.086 492.5,341.5C 493.805,338.947 494.805,336.28 495.5,333.5C 501.025,325.097 506.525,316.763 512,308.5C 513.011,307.663 514.178,307.33 515.5,307.5C 515.351,306.448 515.517,305.448 516,304.5C 520.223,299.94 524.723,295.773 529.5,292C 543.208,281.311 558.541,273.478 575.5,268.5C 577.765,267.658 579.932,267.658 582,268.5C 585.174,266.379 588.507,266.046 592,267.5C 592.995,266.934 593.828,266.267 594.5,265.5 Z"/></g>
<g><path style="opacity:0.523" fill="#fefefe" d="M 595.5,327.5 C 600.196,327.671 604.863,328.171 609.5,329C 611.061,329.941 612.395,331.108 613.5,332.5C 592.867,349.061 590.2,368.394 605.5,390.5C 614.581,396.694 623.581,402.861 632.5,409C 676.285,433.824 718.952,460.491 760.5,489C 799.45,525.379 809.283,568.879 790,619.5C 778.532,644.657 761.365,664.824 738.5,680C 691.887,703.914 646.554,701.914 602.5,674C 568.183,647.532 550.683,612.365 550,568.5C 543.31,560.351 536.81,560.518 530.5,569C 528.117,614.876 545.117,651.543 581.5,679C 590.534,684.184 599.867,688.85 609.5,693C 610.687,694.019 611.687,695.186 612.5,696.5C 583.981,698.371 557.981,691.204 534.5,675C 496.401,647.471 478.568,609.971 481,562.5C 488.572,532.265 507.905,515.599 539,512.5C 567.574,514.089 586.907,528.089 597,554.5C 599.154,567.711 601.154,581.045 603,594.5C 611.24,616.204 625.74,632.037 646.5,642C 690.596,654.417 723.096,640.583 744,600.5C 745.67,593.493 747.336,586.493 749,579.5C 750.23,561.526 745.23,545.526 734,531.5C 726.98,525.809 719.98,520.142 713,514.5C 664.937,485.346 616.771,456.179 568.5,427C 547.792,407.475 542.625,384.308 553,357.5C 562.941,341.662 577.108,331.662 595.5,327.5 Z"/></g>
<g><path style="opacity:1" fill="#f9f9f9" d="M 592.5,331.5 C 596.488,331.83 600.322,331.83 604,331.5C 605.404,331.509 606.57,332.009 607.5,333C 601.059,338.866 596.392,345.866 593.5,354C 593.957,354.414 594.291,354.914 594.5,355.5C 593.184,356.807 592.184,358.307 591.5,360C 592.942,366.805 594.442,373.638 596,380.5C 597.937,385.243 600.437,389.577 603.5,393.5C 616.665,402.89 630.332,411.39 644.5,419C 679.433,440.621 714.099,462.454 748.5,484.5C 771.257,500.536 786.59,522.536 794.5,550.5C 795.377,557.311 796.043,564.144 796.5,571C 796.485,577.64 795.485,583.974 793.5,590C 794.406,591.699 794.739,593.533 794.5,595.5C 791.239,595.1 790.572,596.267 792.5,599C 791.185,602.735 790.185,606.568 789.5,610.5C 788.99,612.088 787.99,613.255 786.5,614C 786.833,614.333 787.167,614.667 787.5,615C 762.3,671.215 718.3,696.882 655.5,692C 641.675,689.419 628.508,684.919 616,678.5C 610.136,674.621 604.302,670.788 598.5,667C 594.94,663.476 591.773,659.642 589,655.5C 587.853,656.458 586.853,656.125 586,654.5C 580.225,646.818 574.558,639.151 569,631.5C 561.223,617.283 556.39,602.45 554.5,587C 556.425,578.397 554.925,570.231 550,562.5C 542.882,558.225 536.049,558.558 529.5,563.5C 528.667,565.167 527.833,566.833 527,568.5C 526.779,577.523 527.279,586.523 528.5,595.5C 528.449,597.1 528.116,598.6 527.5,600C 529.046,601.44 529.879,603.273 530,605.5C 530.333,605.167 530.667,604.833 531,604.5C 533.93,623.336 540.93,640.336 552,655.5C 556.488,660.931 561.488,665.931 567,670.5C 568.751,672.49 569.751,674.823 570,677.5C 572.079,674.719 573.912,675.219 575.5,679C 578.78,680.619 581.78,682.619 584.5,685C 590.303,686.922 595.637,689.588 600.5,693C 592.214,693.537 584.047,692.704 576,690.5C 540.084,679.905 513.25,658.239 495.5,625.5C 485.941,605.902 482.108,585.236 484,563.5C 487.815,548.378 495.648,535.878 507.5,526C 511.097,524.635 514.43,522.802 517.5,520.5C 544.64,511.297 567.14,517.297 585,538.5C 588.779,545.321 592.112,551.987 595,558.5C 595.418,562.178 595.918,565.845 596.5,569.5C 596.43,570.772 596.097,571.938 595.5,573C 596.895,579.836 598.562,586.503 600.5,593C 600.167,593.333 599.833,593.667 599.5,594C 614.3,635.064 643.967,653.398 688.5,649C 699.674,647.159 709.841,642.992 719,636.5C 740.139,620.884 751.306,599.218 752.5,571.5C 752.767,562.268 750.767,553.601 746.5,545.5C 746.709,544.914 747.043,544.414 747.5,544C 743.032,537.305 737.699,530.638 731.5,524C 720.577,515.861 709.244,508.194 697.5,501C 679.275,489.543 660.609,478.543 641.5,468C 642.833,466.16 642.666,465.66 641,466.5C 618.979,453.234 596.813,440.067 574.5,427C 570.751,424.258 567.251,421.091 564,417.5C 548.825,399.109 546.492,379.109 557,357.5C 565.877,344.677 577.711,336.01 592.5,331.5 Z"/></g>
</svg>
